<?xml version="1.0" encoding="utf-8"?>
<!-- Generator: Adobe Illustrator 27.3.1, SVG Export Plug-In . SVG Version: 6.00 Build 0)  -->
<svg version="1.1" id="Layer_1" xmlns="http://www.w3.org/2000/svg" xmlns:xlink="http://www.w3.org/1999/xlink" x="0px" y="0px"
	 viewBox="0 0 792 612" style="enable-background:new 0 0 792 612;" xml:space="preserve">
<style type="text/css">
	.st0{fill-rule:evenodd;clip-rule:evenodd;fill:#F58220;stroke:#F58220;stroke-width:0.216;stroke-miterlimit:10;}
	.st1{fill-rule:evenodd;clip-rule:evenodd;fill:#FFFFFF;}
	.st2{fill-rule:evenodd;clip-rule:evenodd;fill:#F58220;}
</style>
<path class="st0" d="M265.46,88.99h235.66c31.9,0,58.03,26.14,58.03,58.03v235.66c0,31.9-26.14,58.03-58.03,58.03H265.46
	c-31.9,0-58.03-26.14-58.03-58.03V147.02C207.43,115.13,233.57,88.99,265.46,88.99z"/>
<path class="st1" d="M343.66,156.31h47.59c17.57,2.09,43.13,17.14,52.56,37.15c2.59,5.62,3.96,6.48,6.12,23.11
	c1.15,8.57,1.73,14.9,5.54,18.43c5.4,4.9,25.42,1.58,29.38,4.68l3.02,2.38l1.8,3.74l0.65,3.02l-0.43,55.01
	c-0.22,37.37-30.6,67.97-68.04,67.97h-78.19c-37.44,0-68.04-30.6-68.04-67.97v-79.42C275.62,186.98,306.22,156.31,343.66,156.31z"/>
<path class="st2" d="M344.52,211.97h37.73c7.2,0,13.03,5.83,13.03,12.96l0,0c0,7.13-5.83,13.03-13.03,13.03h-37.73
	c-7.2,0-13.03-5.9-13.03-13.03l0,0C331.49,217.8,337.32,211.97,344.52,211.97z"/>
<path class="st2" d="M344.52,289.87h76.68c7.13,0,12.96,5.83,12.96,12.96l0,0c0,7.06-5.83,12.96-12.96,12.96h-76.68
	c-7.2,0-13.03-5.9-13.03-12.96l0,0C331.49,295.7,337.32,289.87,344.52,289.87z"/>
</svg>
